<?xml version="1.0" encoding="UTF-8"?>
<svg version="1.1" xmlns="http://www.w3.org/2000/svg" width="500" height="500">
<path d="M0 0 C4.53568417 4.06542929 8.07319632 8.16235718 10 14 C10.125 16.8125 10.125 16.8125 10 19 C10.9590625 18.2265625 10.9590625 18.2265625 11.9375 17.4375 C18.52465729 14.34556903 26.58843248 17.4667099 33.25 19.5 C34.10553467 19.76063232 34.96106934 20.02126465 35.8425293 20.28979492 C73.52936057 32.17809334 106.43555648 55.31308002 125.01171875 90.765625 C128.23163987 97.18586995 130.73876738 103.75114744 132.8125 110.625 C133.00755127 111.26880615 133.20260254 111.9126123 133.40356445 112.57592773 C136.51077941 123.59715201 137.27612656 134.57232882 137.08984375 145.97265625 C137.07464343 147.93657632 137.05946152 149.90049673 137.04531956 151.86442471 C137.00748972 156.63448532 136.94633325 161.40428542 136.88354492 166.17407227 C136.84881892 168.87250508 136.82256202 171.5707981 136.80458069 174.26939392 C136.7869468 176.78837334 136.75671094 179.30730921 136.71141052 181.82594299 C136.64855039 192.72329396 138.58574973 202.54892685 143.875 212.125 C144.25575684 212.83237305 144.63651367 213.53974609 145.02880859 214.26855469 C148.62046191 220.72587376 152.91539482 226.60209323 157.31494141 232.52514648 C163.31366383 240.64771205 169.09606185 248.67800357 170 259 C168.91707519 263.54828421 166.47523152 265.96208008 163 269 C160.39373785 270.32039566 157.70502411 271.26160972 154.9375 272.1875 C148.69977252 274.06251604 148.69977252 274.06251604 143 277 C141.38737749 281.90274313 141.80029602 286.85740632 143.1875 291.75 C144.1321983 295.34492575 144.12946308 295.73609449 142.375 299.3125 C140.32036991 301.63747616 138.27362371 303.88877799 136 306 C136.515625 306.53625 137.03125 307.0725 137.5625 307.625 C139 310 139 310 138.9375 312.875 C137.57420844 317.41930519 135.379483 320.74223609 131.875 323.9375 C127.36478026 328.89874172 127.79932169 335.44776151 128 341.75 C128.16595662 354.19294602 126.97581302 363.27721035 118.5 372.8125 C110.62426556 379.70376763 102.24570353 380.34083216 92.1875 380.25 C90.6398999 380.24746216 90.6398999 380.24746216 89.06103516 380.24487305 C80.95324735 380.17019446 72.94676552 379.53387609 64.875 378.8125 C52.03722098 377.73304982 40.83833747 377.51499949 30.1796875 385.8671875 C13.39328572 402.29259139 11.78304346 429.94656776 10 452 C6.61809031 450.72536605 3.58987827 449.26626031 0.5078125 447.3828125 C-0.35046143 446.86420654 -1.20873535 446.34560059 -2.09301758 445.8112793 C-3.01107178 445.25480713 -3.92912598 444.69833496 -4.875 444.125 C-23.06983528 433.24277594 -42.12098051 422.55787552 -62.0234375 415.0859375 C-77.73252508 409.12324403 -77.73252508 409.12324403 -81.66015625 402.0078125 C-82.10230469 401.01523437 -82.54445312 400.02265625 -83 399 C-83.2872998 398.39510742 -83.57459961 397.79021484 -83.87060547 397.16699219 C-90.08463838 384.00139409 -94.44493349 369.62479591 -95 355 C-95.03996094 354.09507812 -95.07992187 353.19015625 -95.12109375 352.2578125 C-95.35172348 342.02870575 -93.7069769 332.05732337 -92 322 C-92.845625 321.505 -93.69125 321.01 -94.5625 320.5 C-101.77170059 315.65978022 -106.9479278 308.41789023 -109.58203125 300.1796875 C-111.56409274 289.84332942 -110.07304574 280.72414061 -104.6796875 271.8203125 C-99.63641552 264.51721373 -92.71017395 259.06810023 -84 257 C-74.31372002 255.24750334 -65.57288314 256.05323413 -57.0625 261.25 C-54.32567515 263.19597642 -54.32567515 263.19597642 -52.20703125 262.85546875 C-47.8965881 261.18469521 -44.15826072 258.40655932 -40.2890625 255.91015625 C-37.21545751 254.12512912 -34.40314408 252.9818739 -31 252 C-31.33 248.37 -31.66 244.74 -32 241 C-33.134375 241.061875 -34.26875 241.12375 -35.4375 241.1875 C-59.46870131 241.07432323 -80.10563404 230.47570092 -97 214 C-97.65742188 213.41605469 -98.31484375 212.83210937 -98.9921875 212.23046875 C-114.08319155 198.49556875 -121.80987495 175.86021185 -123 156 C-123.04125 155.33226562 -123.0825 154.66453125 -123.125 153.9765625 C-123.72929949 133.65699201 -117.22968503 111.64579677 -104 96 C-105.43480559 93.00057308 -107.09185308 90.24156782 -108.875 87.4375 C-116.56170908 74.71402311 -119.13524234 60.53187897 -115.875 45.9375 C-111.85991095 31.82892321 -103.68824313 19.6863679 -91 12 C-76.47173004 4.2501502 -61.32197492 2.76012425 -45.453125 7.1484375 C-43.17917293 7.93780303 -41.1178255 8.8619162 -39 10 C-38.46632813 9.32453125 -37.93265625 8.6490625 -37.3828125 7.953125 C-27.50446095 -3.87355195 -13.97602576 -8.55860861 0 0 Z M-10 47 C-10 48.65 -10 50.3 -10 52 C-9.34 51.34 -8.68 50.68 -8 50 C-8 49.01 -8 48.02 -8 47 C-8.66 47 -9.32 47 -10 47 Z " fill="#FAAC17" transform="translate(275,33)"/>
<path d="M0 0 C2.03205052 0.00314073 4.06261302 -0.02028979 6.09448242 -0.0456543 C14.72737614 -0.08779671 22.5590147 0.96135111 30.8659668 3.31567383 C31.59452881 3.51443115 32.32309082 3.71318848 33.07373047 3.91796875 C49.09457825 8.49090977 63.23733682 16.63271274 74.9909668 28.44067383 C78.18321192 31.51050334 78.18321192 31.51050334 82.31518555 32.50708008 C84.68383088 32.00203008 86.6604418 31.31000142 88.8659668 30.31567383 C105.4835247 23.02776874 126.43263601 23.75265732 143.8659668 27.31567383 C143.8659668 27.97567383 143.8659668 28.63567383 143.8659668 29.31567383 C140.8832762 30.84016014 138.0477648 32.2550745 134.8659668 33.31567383 C134.06077271 38.52767341 133.56269327 42.94822319 135.0534668 48.06567383 C135.9981651 51.66059957 135.99542988 52.05176832 134.2409668 55.62817383 C132.18633671 57.95314998 130.1395905 60.20445182 127.8659668 62.31567383 C128.3815918 62.85192383 128.8972168 63.38817383 129.4284668 63.94067383 C130.8659668 66.31567383 130.8659668 66.31567383 130.8034668 69.19067383 C129.44017524 73.73497902 127.24544979 77.05790992 123.7409668 80.25317383 C119.23074705 85.21441554 119.66528849 91.76343534 119.8659668 98.06567383 C120.03192342 110.50861985 118.84177982 119.59288418 110.3659668 129.12817383 C102.49023236 136.01944146 94.11167033 136.65650599 84.0534668 136.56567383 C82.5058667 136.56313599 82.5058667 136.56313599 80.92700195 136.56054688 C72.81921415 136.48586828 64.81273232 135.84954992 56.7409668 135.12817383 C43.90318777 134.04872365 32.70430427 133.83067332 22.0456543 142.18286133 C5.25925252 158.60826522 3.64901025 186.26224159 1.8659668 208.31567383 C-1.51594289 207.04103988 -4.54415493 205.58193414 -7.6262207 203.69848633 C-8.48449463 203.17988037 -9.34276855 202.66127441 -10.22705078 202.12695312 C-11.14510498 201.57048096 -12.06315918 201.01400879 -13.0090332 200.44067383 C-31.20386848 189.55844977 -50.25501372 178.87354934 -70.1574707 171.40161133 C-85.86655829 165.43891786 -85.86655829 165.43891786 -89.79418945 158.32348633 C-90.45741211 156.83461914 -90.45741211 156.83461914 -91.1340332 155.31567383 C-91.56498291 154.40833496 -91.56498291 154.40833496 -92.00463867 153.48266602 C-98.21867158 140.31706792 -102.57896669 125.94046974 -103.1340332 111.31567383 C-103.17399414 110.41075195 -103.21395508 109.50583008 -103.25512695 108.57348633 C-103.48575668 98.34437958 -101.84101011 88.3729972 -100.1340332 78.31567383 C-100.9796582 77.82067383 -101.8252832 77.32567383 -102.6965332 76.81567383 C-109.9057338 71.97545404 -115.081961 64.73356406 -117.71606445 56.49536133 C-119.69812595 46.15900325 -118.20707895 37.03981443 -112.8137207 28.13598633 C-107.77044873 20.83288756 -100.84420716 15.38377406 -92.1340332 13.31567383 C-82.44775322 11.56317717 -73.70691634 12.36890795 -65.1965332 17.56567383 C-62.4571883 19.51509946 -62.4571883 19.51509946 -60.32543945 19.16333008 C-57.28286354 17.98643351 -54.7435044 16.27893283 -52.0090332 14.50317383 C-42.26163209 8.35609054 -32.22770702 5.26902323 -21.1340332 2.31567383 C-19.98547852 1.95344727 -18.83692383 1.5912207 -17.65356445 1.21801758 C-11.8667257 -0.20784615 -5.92598577 -0.01909099 0 0 Z " fill="#007FC6" transform="translate(283.134033203125,276.684326171875)"/>
<path d="M0 0 C4.0029065 0.70577149 7.85319867 1.7528887 11.73828125 2.9387207 C12.59381592 3.19935303 13.44935059 3.45998535 14.33081055 3.72851562 C52.01764182 15.61681404 84.92383773 38.75180072 103.5 74.2043457 C106.71992112 80.62459065 109.22704863 87.18986814 111.30078125 94.0637207 C111.49583252 94.70752686 111.69088379 95.35133301 111.8918457 96.01464844 C114.99906066 107.03587271 115.76440781 118.01104952 115.578125 129.41137695 C115.56292468 131.37529703 115.54774277 133.33921743 115.53360081 135.30314541 C115.49577097 140.07320602 115.4346145 144.84300612 115.37182617 149.61279297 C115.33710017 152.31122579 115.31084327 155.0095188 115.29286194 157.70811462 C115.27522805 160.22709405 115.24499219 162.74602991 115.19969177 165.2646637 C115.13683164 176.16201467 117.07403098 185.98764756 122.36328125 195.5637207 C122.74403809 196.27109375 123.12479492 196.9784668 123.51708984 197.70727539 C127.10874316 204.16459447 131.40367607 210.04081393 135.80322266 215.96386719 C141.80194508 224.08643275 147.5843431 232.11672427 148.48828125 242.4387207 C147.41146595 246.96134496 145.07079639 249.5422191 141.48828125 252.4387207 C134.88312369 256.29292327 129.05111914 255.16681536 121.7734375 254.0012207 C105.19609193 251.57924373 87.11231589 253.08356598 71.6875 259.7668457 C69.03624234 260.5768214 68.02000228 260.55899492 65.48828125 259.4387207 C63.84984004 258.02083888 62.27398955 256.52977508 60.73828125 255.0012207 C41.55522826 236.79335307 15.88487193 228.23569104 -10.19921875 228.0637207 C-10.88991455 228.05849396 -11.58061035 228.05326721 -12.29223633 228.04788208 C-22.58298929 228.01191399 -31.94137052 229.00937391 -41.76171875 232.24731445 C-45.43849293 233.41545625 -48.69888938 234.00679863 -52.51171875 234.4387207 C-53.68855501 230.76110739 -53.54750221 227.27202362 -53.51171875 223.4387207 C-52.69832031 223.42454102 -51.88492188 223.41036133 -51.046875 223.39575195 C-27.7109031 222.42451353 -4.94424545 211.99714306 11.234375 195.0949707 C28.83234969 174.35558979 34.97174188 151.31814166 33.48828125 124.4387207 C33.22010313 121.75693952 32.87130173 119.10750853 32.48828125 116.4387207 C30.53148437 116.20088867 30.53148437 116.20088867 28.53515625 115.95825195 C9.02594505 113.42640815 -6.65084759 107.08414745 -19.51171875 91.4387207 C-27.58680379 79.77146402 -33.79491939 65.86366583 -32.51171875 51.4387207 C-32.47820312 50.35075195 -32.4446875 49.2627832 -32.41015625 48.1418457 C-31.70571113 31.1610107 -25.14063075 18.83173893 -13.56640625 6.61450195 C-11.56077894 4.56244159 -11.56077894 4.56244159 -10.14453125 2.66918945 C-6.99122585 -1.27787903 -4.53727279 -0.61677414 0 0 Z " fill="#8D278E" transform="translate(296.51171875,49.561279296875)"/>
<path d="M0 0 C2.03205052 0.00314073 4.06261302 -0.02028979 6.09448242 -0.0456543 C14.72737614 -0.08779671 22.5590147 0.96135111 30.8659668 3.31567383 C31.59452881 3.51443115 32.32309082 3.71318848 33.07373047 3.91796875 C49.09457825 8.49090977 63.23733682 16.63271274 74.9909668 28.44067383 C78.18321192 31.51050334 78.18321192 31.51050334 82.31518555 32.50708008 C84.68383088 32.00203008 86.6604418 31.31000142 88.8659668 30.31567383 C105.4835247 23.02776874 126.43263601 23.75265732 143.8659668 27.31567383 C143.8659668 27.97567383 143.8659668 28.63567383 143.8659668 29.31567383 C140.8832762 30.84016014 138.0477648 32.2550745 134.8659668 33.31567383 C134.06077271 38.52767341 133.56269327 42.94822319 135.0534668 48.06567383 C135.9981651 51.66059957 135.99542988 52.05176832 134.2409668 55.62817383 C132.18633671 57.95314998 130.1395905 60.20445182 127.8659668 62.31567383 C128.3815918 62.85192383 128.8972168 63.38817383 129.4284668 63.94067383 C130.8659668 66.31567383 130.8659668 66.31567383 130.8034668 69.19067383 C129.44017524 73.73497902 127.24544979 77.05790992 123.7409668 80.25317383 C119.23074705 85.21441554 119.66528849 91.76343534 119.8659668 98.06567383 C120.03192342 110.50861985 118.84177982 119.59288418 110.3659668 129.12817383 C102.49023236 136.01944146 94.11167033 136.65650599 84.0534668 136.56567383 C82.5058667 136.56313599 82.5058667 136.56313599 80.92700195 136.56054688 C72.81950247 136.48587094 64.81230125 135.85257483 56.7409668 135.12817383 C45.02893458 134.10305066 35.83165848 134.76989619 24.8659668 139.31567383 C20.80380028 121.30067064 23.37784377 101.02985102 30.8659668 84.31567383 C30.02291992 84.22286133 29.17987305 84.13004883 28.3112793 84.03442383 C24.4002421 83.21851584 21.21181134 81.71548073 17.7409668 79.81567383 C17.08717041 79.46110107 16.43337402 79.10652832 15.75976562 78.74121094 C9.34383679 75.170736 3.5449662 70.96796147 -2.1340332 66.31567383 C-2.98481445 65.62989258 -3.8355957 64.94411133 -4.7121582 64.23754883 C-20.79534209 50.58201534 -35.76473423 28.63936462 -38.1340332 7.31567383 C-35.46797372 6.52191521 -32.80122154 5.73062312 -30.1340332 4.94067383 C-29.39024414 4.71895508 -28.64645508 4.49723633 -27.88012695 4.26879883 C-26.36521171 3.82091084 -24.84795102 3.38089062 -23.32861328 2.94824219 C-21.38326081 2.38751149 -19.45079383 1.78249638 -17.52075195 1.17114258 C-11.78593412 -0.22392806 -5.86799008 -0.01890416 0 0 Z " fill="#1B6AB8" transform="translate(283.134033203125,276.684326171875)"/>
<path d="M0 0 C4.0029065 0.70577149 7.85319867 1.7528887 11.73828125 2.9387207 C12.59381592 3.19935303 13.44935059 3.45998535 14.33081055 3.72851562 C44.78519576 13.33534133 74.13134626 30.7251889 93.26953125 56.87231445 C95.83286329 62.27010019 93.33731265 68.53089815 91.734375 74.02075195 C85.77785663 90.55476484 73.62238784 102.22489247 58.48828125 110.4387207 C52.36670508 113.27726048 46.26072936 115.17443005 39.48828125 115.4387207 C38.31394531 115.4902832 37.13960938 115.5418457 35.9296875 115.5949707 C18.39998842 116.11705881 2.24335819 112.11871915 -10.94921875 100.0637207 C-22.35845539 89.13264896 -31.31261414 75.16180684 -32.72265625 59.0246582 C-32.764096 56.48025735 -32.6575186 53.97928303 -32.51171875 51.4387207 C-32.48078125 50.34430664 -32.44984375 49.24989258 -32.41796875 48.12231445 C-31.67249113 31.1440617 -25.14657475 18.83801315 -13.56640625 6.61450195 C-11.56077894 4.56244159 -11.56077894 4.56244159 -10.14453125 2.66918945 C-6.99122585 -1.27787903 -4.53727279 -0.61677414 0 0 Z " fill="#EB008A" transform="translate(296.51171875,49.561279296875)"/>
<path d="M0 0 C5.6362497 4.69846961 8.80848145 9.71947741 10.8203125 16.73828125 C11.04366419 19.5495992 10.53931419 20.65371201 9 23 C7.7852628 24.40624982 6.53130961 25.77912828 5.25 27.125 C-0.14314764 33.06726812 -4.15268469 39.49586059 -7 47 C-7.99 47 -8.98 47 -10 47 C-9.814375 47.86625 -9.62875 48.7325 -9.4375 49.625 C-7.3635867 64.50307369 -11.08160231 79.11462069 -20 91 C-20.64839844 91.86753906 -21.29679687 92.73507813 -21.96484375 93.62890625 C-29.4340437 102.73938291 -41.14109725 110.41778888 -53 112 C-70.14030862 113.34651932 -83.86483522 110.75613848 -97.6328125 99.9296875 C-108.32443494 90.76999902 -115.20488267 79.15736865 -117 65 C-118.06787885 49.18717856 -114.13325474 34.72761063 -103.625 22.625 C-93.08383933 11.6446243 -80.60800604 5.19892907 -65.27514648 4.7175293 C-56.09458788 4.58547355 -47.21643684 5.58462506 -39 10 C-38.46632813 9.32453125 -37.93265625 8.6490625 -37.3828125 7.953125 C-27.4614199 -3.92508205 -14.02718072 -8.48953352 0 0 Z " fill="#56BA48" transform="translate(275,33)"/>
<path d="M0 0 C2.66966056 2.66966056 1.6154182 9.85860506 1.77734375 13.6730957 C1.84222752 15.09453692 1.91800437 16.51552443 2.00488281 17.93579102 C2.12982108 19.9841587 2.22084728 22.03161836 2.3046875 24.08203125 C2.36640137 25.31155518 2.42811523 26.5410791 2.49169922 27.80786133 C2 31 2 31 -0.40380859 33.28613281 C-1.26055176 33.85170898 -2.11729492 34.41728516 -3 35 C-17.19452488 53.01381441 -19.21769004 76.95563995 -21 99 C-24.38190969 97.72536605 -27.41012173 96.26626031 -30.4921875 94.3828125 C-31.35046143 93.86420654 -32.20873535 93.34560059 -33.09301758 92.8112793 C-34.01107178 92.25480713 -34.92912598 91.69833496 -35.875 91.125 C-58.6872762 77.48111166 -82.45560418 66.13028851 -107 56 C-104.47693479 33.73765995 -97.18333366 16.81623242 -79.6875 2.1875 C-55.46914262 -15.4690208 -25.15804369 -15.51005606 0 0 Z " fill="#019EDF" transform="translate(306,386)"/>
<path d="M0 0 C0.93005859 0.29003906 0.93005859 0.29003906 1.87890625 0.5859375 C8.90355801 2.65141007 15.75717985 3.73875101 23.0078125 4.5703125 C26 5 26 5 27 6 C30.98123459 31.02490315 26.86919102 55.64622621 12.125 76.5 C-1.75702442 95.26964829 -22.80497416 108.95302233 -46 113 C-50.67461821 113.44700563 -55.31939854 113.33379884 -60 113 C-65.00673888 86.7146209 -56.21953273 59.02200603 -41.6875 37.25 C-31.36709725 22.98459688 -18.9237039 10.94932586 -3.01171875 3.12109375 C-0.846116 2.16189509 -0.846116 2.16189509 0 0 Z " fill="#E6932D" transform="translate(303,160)"/>
<path d="M0 0 C8.24299841 6.13722402 13.11357271 14.50615138 15.0078125 24.5234375 C16.51905114 35.06479347 14.18041534 45.23214986 7.85546875 53.8359375 C2.21254826 60.81761208 -5.67847654 66.9473418 -14.67578125 68.73046875 C-27.99500828 69.95599925 -38.42328714 68.40118081 -49.05078125 59.60546875 C-58.32482306 50.5252574 -61.4734943 40.44926047 -61.67578125 27.73046875 C-60.76043105 18.05064041 -56.47311795 9.44026281 -49.53515625 2.62890625 C-34.479088 -9.74233864 -16.342304 -10.39031887 0 0 Z " fill="#12BBBC" transform="translate(143.67578125,237.26953125)"/>
<path d="M0 0 C6.4705374 6.09068804 11.10024456 14.22554745 12.12109375 23.1015625 C12.34308398 34.46223876 9.67237376 43.83015987 1.7109375 52.19140625 C-1.61893778 55.05032307 -5.27000585 57.06079772 -9.25 58.875 C-10.37341797 59.42220703 -10.37341797 59.42220703 -11.51953125 59.98046875 C-20.71900114 62.99431511 -32.10901863 61.66423678 -40.6640625 57.48046875 C-48.88863104 52.37427892 -53.8917905 45.16126268 -56.859375 35.9921875 C-58.76728327 25.65132465 -57.32376588 16.60032946 -51.9296875 7.6953125 C-45.99000069 -0.90587332 -38.34164525 -5.2338946 -28.4375 -7.875 C-17.98127537 -8.69509605 -8.27379832 -6.65671819 0 0 Z " fill="#00B8F0" transform="translate(222.25,297.125)"/>
<path d="M0 0 C2.90483192 3.27415041 4.15112788 6.25391008 4.66015625 10.61328125 C2.42152925 27.94377567 -8.000677 41.99802843 -21.33984375 52.61328125 C-32.75006522 60.71201889 -43.61041832 63.24271646 -57.33984375 63.61328125 C-57.76394531 62.3809375 -58.18804687 61.14859375 -58.625 59.87890625 C-61.76534893 50.96035136 -64.85417813 42.88424661 -70.25 35.05859375 C-71.33984375 32.61328125 -71.33984375 32.61328125 -70.734375 30.05859375 C-61.76603536 14.33259762 -44.06284771 5.33928619 -27.34765625 0.375 C-19.65722971 -1.57257555 -7.26730029 -4.30699767 0 0 Z " fill="#D4088B" transform="translate(386.33984375,101.38671875)"/>
<path d="M0 0 C0.33 0 0.66 0 1 0 C1.68883422 11.93979315 -1.87677242 21.50700982 -9 31 C-9.64839844 31.86753906 -10.29679687 32.73507813 -10.96484375 33.62890625 C-18.4340437 42.73938291 -30.14109725 50.41778888 -42 52 C-59.80470999 53.39871379 -74.22212036 50.43826847 -88.125 38.625 C-89.548125 37.325625 -89.548125 37.325625 -91 36 C-85.49345778 22.87607438 -69.16884326 14.12722287 -56.8125 8.625 C-45.86641217 4.19502499 -35.25066868 1.80226993 -23.4375 1.8125 C-22.65971191 1.81185547 -21.88192383 1.81121094 -21.08056641 1.81054688 C-13.92830649 1.87486313 -7.04359764 2.73169946 0 4 C0 2.68 0 1.36 0 0 Z " fill="#74B73E" transform="translate(264,93)"/>
<path d="M0 0 C6.11416043 3.9514077 9.51288788 9.00969088 11.58203125 15.953125 C13.47108827 25.20420799 11.0824602 32.78352888 6.375 40.75 C0.27547697 46.52849551 -5.94145291 49.78386511 -14.3984375 50.10546875 C-22.94501618 49.75898583 -29.86008641 46.49952231 -35.75 40.375 C-40.19192665 35.01474245 -41.57308692 29.35431703 -42.4375 22.5625 C-41.40378014 14.14506684 -38.62286529 7.39344518 -32.265625 1.66015625 C-22.07074918 -5.8102269 -10.93895815 -5.91990676 0 0 Z " fill="#8CC53F" transform="translate(130,165)"/>
<path d="M0 0 C18.93064329 3.55716191 36.69416257 15.84986933 48.1328125 31.19140625 C64 55.05857741 64 55.05857741 64 67 C48.65474721 67.79371997 33.77368488 63.13104225 22.10839844 53.03759766 C9.84420247 41.83092711 0.07157614 27.22814987 -1.2109375 10.19921875 C-1.26485439 6.47356178 -1.1849192 3.5547576 0 0 Z " fill="#ED1F75" transform="translate(265,98)"/>
<path d="M0 0 C0 0.66 0 1.32 0 2 C-2.9826906 3.52448631 -5.818202 4.93940067 -9 6 C-9.80519409 11.21199958 -10.30327353 15.63254936 -8.8125 20.75 C-7.8678017 24.34492575 -7.87053692 24.73609449 -9.625 28.3125 C-11.67963009 30.63747616 -13.72637629 32.88877799 -16 35 C-15.484375 35.53625 -14.96875 36.0725 -14.4375 36.625 C-13 39 -13 39 -13 41.890625 C-14.14693938 45.45688963 -15.42570179 46.40062864 -18.66113281 48.16992188 C-19.28858398 48.48509766 -19.91603516 48.80027344 -20.5625 49.125 C-21.51334473 49.63256836 -21.51334473 49.63256836 -22.48339844 50.15039062 C-24.31253651 51.12057219 -26.15411384 52.06219177 -28 53 C-28.87011719 53.46148437 -29.74023438 53.92296875 -30.63671875 54.3984375 C-35.62765957 57 -35.62765957 57 -38 57 C-38.43699219 55.51113281 -38.43699219 55.51113281 -38.8828125 53.9921875 C-44.19606186 36.22704211 -51.10670244 20.69912866 -64 7 C-46.4813839 -4.6790774 -19.82852932 -4.05254614 0 0 Z " fill="#3657AB" transform="translate(427,304)"/>
<path d="M0 0 C6.61954606 6.05215639 11.32640839 13.14329817 12.37109375 22.2265625 C12.59308398 33.58723876 9.92237376 42.95515987 1.9609375 51.31640625 C-1.36893778 54.17532307 -5.02000585 56.18579772 -9 58 C-9.74121094 58.36867188 -10.48242188 58.73734375 -11.24609375 59.1171875 C-15.0178974 60.3263047 -18.50223259 60.29102798 -22.4375 60.25 C-23.17548828 60.25773437 -23.91347656 60.26546875 -24.67382812 60.2734375 C-29.16549563 60.25746713 -32.7704467 59.68914015 -37 58 C-35.73762363 36.11880959 -18.52452975 16.16088862 -3 2 C-2.01 1.34 -1.02 0.68 0 0 Z " fill="#00AEE8" transform="translate(222,298)"/>
<path d="M0 0 C4.98274805 2.92555539 9.45638836 7.45410378 11.4453125 12.9609375 C12.9175936 20.17774395 13.07078916 27.92958059 9.21875 34.390625 C4.83805294 40.01380046 -0.15235221 43.6019976 -7.31640625 44.51171875 C-15.73208882 44.73789611 -21.72345498 43.85740615 -28.1171875 38.10546875 C-33.71022532 31.23069309 -34.77786587 24.81663541 -34.1171875 16.10546875 C-32.2088509 9.74434676 -28.6820942 4.42743863 -23.078125 0.77734375 C-15.6629577 -2.9433409 -7.66224408 -3.30376111 0 0 Z " fill="#FED800" transform="translate(90.1171875,100.89453125)"/>
<path d="M0 0 C4.66859729 4.04547855 7.5990515 8.61991093 8.3359375 14.83203125 C8.42188971 21.39018472 8.19806073 26.73184535 4 32 C-1.00469484 36.86356462 -6.25633301 39.87537164 -13.37890625 40.0625 C-19.62471662 39.75736117 -24.26361513 38.12591748 -29 34 C-34.30036803 27.98764224 -35.36230936 22.89496104 -35.27734375 15.078125 C-34.73479337 9.05657998 -32.41366069 5.44578934 -28.25 1.1875 C-18.86727395 -5.12779638 -9.99105171 -5.62922518 0 0 Z " fill="#019444" transform="translate(141,41)"/>
<path d="M0 0 C7.08249012 4.28646629 10.97058795 10.35782107 13.21484375 18.1875 C13.43819544 20.99881795 12.93384544 22.10293076 11.39453125 24.44921875 C10.17979405 25.85546857 8.92584086 27.22834703 7.64453125 28.57421875 C2.25138361 34.51648687 -1.75815344 40.94507934 -4.60546875 48.44921875 C-5.92546875 48.44921875 -7.24546875 48.44921875 -8.60546875 48.44921875 C-8.95738281 47.47082031 -9.30929687 46.49242187 -9.671875 45.484375 C-14.84526193 31.55766717 -22.42519175 20.98741226 -35.60546875 13.44921875 C-35.49049757 9.6551699 -34.15264117 7.59302861 -31.66796875 4.88671875 C-22.73032998 -3.46723749 -11.03703585 -4.95363027 0 0 Z " fill="#F8EC31" transform="translate(272.60546875,31.55078125)"/>
<path d="M0 0 C13.33526546 15.65837731 21.37237478 39.48214962 21 60 C20.06800781 59.48050781 19.13601563 58.96101563 18.17578125 58.42578125 C4.91407163 51.12807293 -8.27560993 46.38339643 -23 43 C-21.67877464 40.01762237 -20.31594877 38.20258764 -17.875 36.0625 C-9.67393795 28.04977132 -5.01988302 17.90336712 -2 7 C-1.77570313 6.23945312 -1.55140625 5.47890625 -1.3203125 4.6953125 C-0.86292207 3.13517253 -0.42777766 1.56851809 0 0 Z " fill="#672D91" transform="translate(391,110)"/>
<path d="M0 0 C4.6314797 2.53420588 8.31032562 4.93097685 10 10 C10.54885106 14.7237181 10.46596728 18.10134882 8.25 22.375 C4.49231732 26.75896312 1.59373911 28.75060201 -4.25 29.3125 C-9.46261206 28.87811566 -13.06762489 27.15217133 -16.6484375 23.1640625 C-19.00709131 19.38748963 -19.11083727 15.37807216 -19 11 C-17.41283596 6.23850788 -15.13345914 3.79008492 -11 1 C-7.27652266 -0.24115911 -3.86785828 -0.5420862 0 0 Z " fill="#56BA48" transform="translate(139,105)"/>
<path d="M0 0 C3.66456364 2.93165091 4.92723315 5.648871 6 10.1875 C6.26769286 15.27366433 5.16293652 18.31935977 2.3125 22.5 C-0.22323161 25.1848923 -2.25864943 26.50299233 -5.92578125 27.0859375 C-11.76767402 27.18970114 -15.08536269 26.24808161 -19.8125 22.75 C-23.24940459 18.98049174 -23.32121649 15.09142777 -23.16796875 10.1875 C-22.5048564 5.6404439 -20.12007267 2.93498773 -16.8125 -0.0625 C-11.40620197 -3.27248946 -5.5904996 -2.48466649 0 0 Z " fill="#FBAD17" transform="translate(172.8125,17.25)"/>
<path d="M0 0 C12.85734744 5.90071501 21.70595962 16.40770698 26.875 29.4375 C28 33 28 33 28 36 C19.43232689 36.46544703 13.67819626 35.32456738 6.8125 29.875 C1.00441512 24.51715425 -1.43310024 18.01525697 -2.05078125 10.21875 C-1.96783233 6.59452034 -1.0681757 3.45586255 0 0 Z " fill="#73C343" transform="translate(236,44)"/>
<path d="M0 0 C2.87029869 1.79393668 4.49131638 2.98263276 6 6 C6.64256398 10.58974271 6.77900671 14.66163684 3.9375 18.5 C0.38858993 21.52034899 -1.36025432 22.07999562 -6 22 C-10.70156696 20.74624881 -12.46496633 19.88614951 -15 15.6875 C-16.06234157 11.77011547 -16.2500315 9.83342995 -15 6 C-10.79701125 -0.1011127 -7.16957355 -0.92870124 0 0 Z " fill="#F15E22" transform="translate(82,54)"/>
<path d="M0 0 C-0.19417086 7.62561936 -2.14018302 13.00848323 -7.48828125 18.5390625 C-10.40860788 21.11981626 -13.30194895 22.80357172 -17 24 C-14.8322227 18.26176598 -7.32608502 0 0 0 Z " fill="#EE2E78" transform="translate(285,55)"/>
</svg>
